<mxfile host="app.diagrams.net" agent="Mozilla/5.0 (Windows NT 10.0; Win64; x64) AppleWebKit/537.36 (KHTML, like Gecko) Chrome/134.0.0.0 Safari/537.36" version="26.1.1">
  <diagram name="第 1 页" id="ergHUzXghdu48mOkxfZ9">
    <mxGraphModel dx="967" dy="573" grid="0" gridSize="10" guides="1" tooltips="1" connect="1" arrows="1" fold="1" page="1" pageScale="1" pageWidth="827" pageHeight="1169" background="none" math="0" shadow="0">
      <root>
        <mxCell id="0" />
        <mxCell id="1" parent="0" />
        <mxCell id="fPxglKkb8lsgMMI8yU8m-34" value="2位制造商编码" style="text;strokeColor=none;fillColor=none;html=1;fontSize=18;fontStyle=1;verticalAlign=middle;align=center;movable=1;resizable=1;rotatable=1;deletable=1;editable=1;locked=0;connectable=1;" parent="1" vertex="1">
          <mxGeometry x="349" y="871" width="126" height="40" as="geometry" />
        </mxCell>
        <mxCell id="fPxglKkb8lsgMMI8yU8m-35" value="" style="edgeStyle=segmentEdgeStyle;endArrow=classic;html=1;curved=0;rounded=0;endSize=8;startSize=8;exitX=0.116;exitY=1.009;exitDx=0;exitDy=0;exitPerimeter=0;movable=1;resizable=1;rotatable=1;deletable=1;editable=1;locked=0;connectable=1;entryX=0;entryY=0.5;entryDx=0;entryDy=0;" parent="1" target="fPxglKkb8lsgMMI8yU8m-34" edge="1">
          <mxGeometry width="50" height="50" relative="1" as="geometry">
            <mxPoint x="267.00199999999995" y="739.9959999999999" as="sourcePoint" />
            <mxPoint x="342.49" y="873.3103448275863" as="targetPoint" />
            <Array as="points">
              <mxPoint x="268" y="740" />
              <mxPoint x="268" y="892" />
              <mxPoint x="340" y="892" />
            </Array>
          </mxGeometry>
        </mxCell>
        <mxCell id="FJMeuyJBNWMCIe64IlPQ-12" value="" style="edgeStyle=segmentEdgeStyle;endArrow=classic;html=1;curved=0;rounded=0;endSize=8;startSize=8;movable=1;resizable=1;rotatable=1;deletable=1;editable=1;locked=0;connectable=1;exitX=0.5;exitY=1;exitDx=0;exitDy=0;" parent="1" source="FJMeuyJBNWMCIe64IlPQ-28" target="FJMeuyJBNWMCIe64IlPQ-34" edge="1">
          <mxGeometry width="50" height="50" relative="1" as="geometry">
            <mxPoint x="432" y="727" as="sourcePoint" />
            <mxPoint x="516" y="793" as="targetPoint" />
            <Array as="points">
              <mxPoint x="456" y="805" />
            </Array>
          </mxGeometry>
        </mxCell>
        <mxCell id="FJMeuyJBNWMCIe64IlPQ-15" value="2位年份" style="text;strokeColor=none;fillColor=none;html=1;fontSize=18;fontStyle=1;verticalAlign=middle;align=center;movable=1;resizable=1;rotatable=1;deletable=1;editable=1;locked=0;connectable=1;" parent="1" vertex="1">
          <mxGeometry x="602" y="761" width="63" height="30" as="geometry" />
        </mxCell>
        <mxCell id="FJMeuyJBNWMCIe64IlPQ-16" value="" style="edgeStyle=segmentEdgeStyle;endArrow=classic;html=1;curved=0;rounded=0;endSize=8;startSize=8;movable=1;resizable=1;rotatable=1;deletable=1;editable=1;locked=0;connectable=1;" parent="1" edge="1">
          <mxGeometry width="50" height="50" relative="1" as="geometry">
            <mxPoint x="549" y="736" as="sourcePoint" />
            <mxPoint x="600" y="776" as="targetPoint" />
            <Array as="points">
              <mxPoint x="549" y="776" />
              <mxPoint x="600" y="776" />
            </Array>
          </mxGeometry>
        </mxCell>
        <mxCell id="FJMeuyJBNWMCIe64IlPQ-34" value="2位月份" style="text;strokeColor=none;fillColor=none;html=1;fontSize=18;fontStyle=1;verticalAlign=middle;align=center;movable=1;resizable=1;rotatable=1;deletable=1;editable=1;locked=0;connectable=1;" parent="1" vertex="1">
          <mxGeometry x="516" y="790" width="68" height="30" as="geometry" />
        </mxCell>
        <mxCell id="FJMeuyJBNWMCIe64IlPQ-37" value="5位流水号" style="text;strokeColor=none;fillColor=none;html=1;fontSize=18;fontStyle=1;verticalAlign=middle;align=center;movable=1;resizable=1;rotatable=1;deletable=1;editable=1;locked=0;connectable=1;" parent="1" vertex="1">
          <mxGeometry x="721.5" y="740" width="74.5" height="30" as="geometry" />
        </mxCell>
        <mxCell id="FJMeuyJBNWMCIe64IlPQ-38" value="" style="edgeStyle=segmentEdgeStyle;endArrow=classic;html=1;curved=0;rounded=0;endSize=8;startSize=8;movable=1;resizable=1;rotatable=1;deletable=1;editable=1;locked=0;connectable=1;exitX=0.476;exitY=1.004;exitDx=0;exitDy=0;exitPerimeter=0;" parent="1" edge="1">
          <mxGeometry width="50" height="50" relative="1" as="geometry">
            <mxPoint x="676.28" y="738.3000000000001" as="sourcePoint" />
            <mxPoint x="715" y="755" as="targetPoint" />
            <Array as="points">
              <mxPoint x="676" y="756" />
              <mxPoint x="708" y="756" />
            </Array>
          </mxGeometry>
        </mxCell>
        <mxCell id="FJMeuyJBNWMCIe64IlPQ-41" value="" style="edgeStyle=segmentEdgeStyle;endArrow=classic;html=1;curved=0;rounded=0;endSize=8;startSize=8;movable=1;resizable=1;rotatable=1;deletable=1;editable=1;locked=0;connectable=1;entryX=0;entryY=0.5;entryDx=0;entryDy=0;" parent="1" target="FJMeuyJBNWMCIe64IlPQ-45" edge="1">
          <mxGeometry width="50" height="50" relative="1" as="geometry">
            <mxPoint x="364" y="739" as="sourcePoint" />
            <mxPoint x="439" y="840" as="targetPoint" />
            <Array as="points">
              <mxPoint x="364" y="838" />
            </Array>
          </mxGeometry>
        </mxCell>
        <mxCell id="FJMeuyJBNWMCIe64IlPQ-45" value="2位日期" style="text;strokeColor=none;fillColor=none;html=1;fontSize=18;fontStyle=1;verticalAlign=middle;align=center;movable=1;resizable=1;rotatable=1;deletable=1;editable=1;locked=0;connectable=1;" parent="1" vertex="1">
          <mxGeometry x="455" y="823.33" width="68" height="30" as="geometry" />
        </mxCell>
        <mxCell id="FJMeuyJBNWMCIe64IlPQ-48" value="" style="shape=curlyBracket;whiteSpace=wrap;html=1;rounded=1;labelPosition=left;verticalLabelPosition=middle;align=right;verticalAlign=middle;rotation=90;" parent="1" vertex="1">
          <mxGeometry x="445.75" y="513.75" width="20" height="278.5" as="geometry" />
        </mxCell>
        <mxCell id="FJMeuyJBNWMCIe64IlPQ-49" value="6位QS码生成日期" style="text;strokeColor=none;fillColor=none;html=1;fontSize=18;fontStyle=1;verticalAlign=middle;align=center;movable=1;resizable=1;rotatable=1;deletable=1;editable=1;locked=0;connectable=1;" parent="1" vertex="1">
          <mxGeometry x="442" y="616" width="40" height="30" as="geometry" />
        </mxCell>
        <mxCell id="FJMeuyJBNWMCIe64IlPQ-50" value="2位制造商编码" style="text;strokeColor=none;fillColor=none;html=1;fontSize=18;fontStyle=1;verticalAlign=middle;align=center;movable=1;resizable=1;rotatable=1;deletable=1;editable=1;locked=0;connectable=1;" parent="1" vertex="1">
          <mxGeometry x="358" y="359.5" width="124" height="40" as="geometry" />
        </mxCell>
        <mxCell id="FJMeuyJBNWMCIe64IlPQ-51" value="" style="edgeStyle=segmentEdgeStyle;endArrow=classic;html=1;curved=0;rounded=0;endSize=8;startSize=8;exitX=0.116;exitY=1.009;exitDx=0;exitDy=0;exitPerimeter=0;movable=1;resizable=1;rotatable=1;deletable=1;editable=1;locked=0;connectable=1;entryX=0;entryY=0.5;entryDx=0;entryDy=0;" parent="1" target="FJMeuyJBNWMCIe64IlPQ-50" edge="1">
          <mxGeometry width="50" height="50" relative="1" as="geometry">
            <mxPoint x="276.00199999999995" y="228.49599999999987" as="sourcePoint" />
            <mxPoint x="351.49" y="361.8103448275863" as="targetPoint" />
            <Array as="points">
              <mxPoint x="277" y="228.5" />
              <mxPoint x="277" y="380.5" />
              <mxPoint x="349" y="380.5" />
            </Array>
          </mxGeometry>
        </mxCell>
        <mxCell id="FJMeuyJBNWMCIe64IlPQ-52" value="" style="edgeStyle=segmentEdgeStyle;endArrow=classic;html=1;curved=0;rounded=0;endSize=8;startSize=8;movable=1;resizable=1;rotatable=1;deletable=1;editable=1;locked=0;connectable=1;exitX=0.5;exitY=1;exitDx=0;exitDy=0;" parent="1" target="FJMeuyJBNWMCIe64IlPQ-63" edge="1">
          <mxGeometry width="50" height="50" relative="1" as="geometry">
            <mxPoint x="452.7052954719875" y="234" as="sourcePoint" />
            <mxPoint x="525" y="281.5" as="targetPoint" />
            <Array as="points">
              <mxPoint x="459" y="294" />
            </Array>
          </mxGeometry>
        </mxCell>
        <mxCell id="FJMeuyJBNWMCIe64IlPQ-53" value="2位年份" style="text;strokeColor=none;fillColor=none;html=1;fontSize=18;fontStyle=1;verticalAlign=middle;align=center;movable=1;resizable=1;rotatable=1;deletable=1;editable=1;locked=0;connectable=1;" parent="1" vertex="1">
          <mxGeometry x="586" y="249.5" width="66" height="30" as="geometry" />
        </mxCell>
        <mxCell id="FJMeuyJBNWMCIe64IlPQ-54" value="" style="edgeStyle=segmentEdgeStyle;endArrow=classic;html=1;curved=0;rounded=0;endSize=8;startSize=8;movable=1;resizable=1;rotatable=1;deletable=1;editable=1;locked=0;connectable=1;exitX=0.5;exitY=1;exitDx=0;exitDy=0;" parent="1" edge="1">
          <mxGeometry width="50" height="50" relative="1" as="geometry">
            <mxPoint x="546.2609363008442" y="234" as="sourcePoint" />
            <mxPoint x="584" y="264.5" as="targetPoint" />
            <Array as="points">
              <mxPoint x="552" y="265" />
            </Array>
          </mxGeometry>
        </mxCell>
        <mxCell id="FJMeuyJBNWMCIe64IlPQ-63" value="&amp;nbsp;2位月份" style="text;strokeColor=none;fillColor=none;html=1;fontSize=18;fontStyle=1;verticalAlign=middle;align=center;movable=1;resizable=1;rotatable=1;deletable=1;editable=1;locked=0;connectable=1;" parent="1" vertex="1">
          <mxGeometry x="525" y="278.5" width="64" height="30" as="geometry" />
        </mxCell>
        <mxCell id="FJMeuyJBNWMCIe64IlPQ-64" value="4位流水号" style="text;strokeColor=none;fillColor=none;html=1;fontSize=18;fontStyle=1;verticalAlign=middle;align=center;movable=1;resizable=1;rotatable=1;deletable=1;editable=1;locked=0;connectable=1;" parent="1" vertex="1">
          <mxGeometry x="715.5" y="235.5" width="74.5" height="30" as="geometry" />
        </mxCell>
        <mxCell id="FJMeuyJBNWMCIe64IlPQ-65" value="" style="edgeStyle=segmentEdgeStyle;endArrow=classic;html=1;curved=0;rounded=0;endSize=8;startSize=8;movable=1;resizable=1;rotatable=1;deletable=1;editable=1;locked=0;connectable=1;exitX=0.476;exitY=1.004;exitDx=0;exitDy=0;exitPerimeter=0;" parent="1" edge="1">
          <mxGeometry width="50" height="50" relative="1" as="geometry">
            <mxPoint x="670.28" y="233.80000000000007" as="sourcePoint" />
            <mxPoint x="709" y="250.5" as="targetPoint" />
            <Array as="points">
              <mxPoint x="670" y="251.5" />
              <mxPoint x="702" y="251.5" />
            </Array>
          </mxGeometry>
        </mxCell>
        <mxCell id="FJMeuyJBNWMCIe64IlPQ-66" value="" style="edgeStyle=segmentEdgeStyle;endArrow=classic;html=1;curved=0;rounded=0;endSize=8;startSize=8;movable=1;resizable=1;rotatable=1;deletable=1;editable=1;locked=0;connectable=1;entryX=0;entryY=0.5;entryDx=0;entryDy=0;" parent="1" edge="1">
          <mxGeometry width="50" height="50" relative="1" as="geometry">
            <mxPoint x="367.9655172413793" y="227.5" as="sourcePoint" />
            <mxPoint x="478" y="326.8299999999999" as="targetPoint" />
            <Array as="points">
              <mxPoint x="368" y="326.5" />
            </Array>
          </mxGeometry>
        </mxCell>
        <mxCell id="FJMeuyJBNWMCIe64IlPQ-67" value="2位日期" style="text;strokeColor=none;fillColor=none;html=1;fontSize=18;fontStyle=1;verticalAlign=middle;align=center;movable=1;resizable=1;rotatable=1;deletable=1;editable=1;locked=0;connectable=1;" parent="1" vertex="1">
          <mxGeometry x="484" y="311.83" width="57" height="30" as="geometry" />
        </mxCell>
        <mxCell id="FJMeuyJBNWMCIe64IlPQ-70" value="" style="shape=curlyBracket;whiteSpace=wrap;html=1;rounded=1;labelPosition=left;verticalLabelPosition=middle;align=right;verticalAlign=middle;rotation=90;" parent="1" vertex="1">
          <mxGeometry x="449.25" y="9.75" width="20" height="277.5" as="geometry" />
        </mxCell>
        <mxCell id="FJMeuyJBNWMCIe64IlPQ-71" value="6位集合码生成日期" style="text;strokeColor=none;fillColor=none;html=1;fontSize=18;fontStyle=1;verticalAlign=middle;align=center;movable=1;resizable=1;rotatable=1;deletable=1;editable=1;locked=0;connectable=1;" parent="1" vertex="1">
          <mxGeometry x="430" y="111.5" width="40" height="30" as="geometry" />
        </mxCell>
        <mxCell id="FJMeuyJBNWMCIe64IlPQ-56" value="" style="rounded=0;whiteSpace=wrap;html=1;" parent="1" vertex="1">
          <mxGeometry x="230" y="159" width="510.46" height="75" as="geometry" />
        </mxCell>
        <mxCell id="FJMeuyJBNWMCIe64IlPQ-57" value="LC" style="rounded=0;whiteSpace=wrap;html=1;fillColor=#b1ddf0;strokeColor=#6c8ebf;fontStyle=1;fontSize=35;" parent="1" vertex="1">
          <mxGeometry x="228.3207521105142" y="159" width="92.55564082885648" height="75" as="geometry" />
        </mxCell>
        <mxCell id="FJMeuyJBNWMCIe64IlPQ-59" value="11" style="rounded=0;whiteSpace=wrap;html=1;fillColor=#cdeb8b;fontStyle=1;fontSize=35;" parent="1" vertex="1">
          <mxGeometry x="320.871834228703" y="159" width="92.55564082885648" height="75" as="geometry" />
        </mxCell>
        <mxCell id="FJMeuyJBNWMCIe64IlPQ-60" value="15" style="rounded=0;whiteSpace=wrap;html=1;fillColor=#d5e8d4;fontStyle=1;fontSize=35;" parent="1" vertex="1">
          <mxGeometry x="413.42747505755943" y="159" width="92.55564082885648" height="75" as="geometry" />
        </mxCell>
        <mxCell id="FJMeuyJBNWMCIe64IlPQ-61" value="ab" style="rounded=0;whiteSpace=wrap;html=1;fillColor=#fff2cc;fontStyle=1;fontSize=35;" parent="1" vertex="1">
          <mxGeometry x="505.983115886416" y="159" width="92.55564082885648" height="75" as="geometry" />
        </mxCell>
        <mxCell id="FJMeuyJBNWMCIe64IlPQ-62" value="0001" style="rounded=0;whiteSpace=wrap;html=1;fillColor=#fad9d5;fontStyle=1;fontSize=35;" parent="1" vertex="1">
          <mxGeometry x="598.0245587106677" y="159" width="143.9754412893323" height="75" as="geometry" />
        </mxCell>
        <mxCell id="FJMeuyJBNWMCIe64IlPQ-21" value="" style="rounded=0;whiteSpace=wrap;html=1;" parent="1" vertex="1">
          <mxGeometry x="220" y="664" width="536.48" height="75" as="geometry" />
        </mxCell>
        <mxCell id="FJMeuyJBNWMCIe64IlPQ-23" value="LC" style="rounded=0;whiteSpace=wrap;html=1;fillColor=#b1ddf0;strokeColor=#6c8ebf;fontStyle=1;fontSize=35;" parent="1" vertex="1">
          <mxGeometry x="221.08" y="664" width="93.93706830391403" height="75" as="geometry" />
        </mxCell>
        <mxCell id="FJMeuyJBNWMCIe64IlPQ-27" value="11" style="rounded=0;whiteSpace=wrap;html=1;fillColor=#cdeb8b;fontStyle=1;fontSize=35;" parent="1" vertex="1">
          <mxGeometry x="316.01765157329237" y="664" width="93.93706830391403" height="75" as="geometry" />
        </mxCell>
        <mxCell id="FJMeuyJBNWMCIe64IlPQ-28" value="15" style="rounded=0;whiteSpace=wrap;html=1;fillColor=#d5e8d4;fontStyle=1;fontSize=35;" parent="1" vertex="1">
          <mxGeometry x="408.91097467382957" y="664" width="93.93706830391403" height="75" as="geometry" />
        </mxCell>
        <mxCell id="FJMeuyJBNWMCIe64IlPQ-29" value="ab" style="rounded=0;whiteSpace=wrap;html=1;fillColor=#fff2cc;fontStyle=1;fontSize=35;" parent="1" vertex="1">
          <mxGeometry x="502.84804297774366" y="664" width="93.93706830391403" height="75" as="geometry" />
        </mxCell>
        <mxCell id="FJMeuyJBNWMCIe64IlPQ-30" value="00001" style="rounded=0;whiteSpace=wrap;html=1;fillColor=#fad9d5;fontStyle=1;fontSize=35;" parent="1" vertex="1">
          <mxGeometry x="595.2194934765924" y="664" width="161.7805065234075" height="75" as="geometry" />
        </mxCell>
      </root>
    </mxGraphModel>
  </diagram>
</mxfile>
